<svg width="57" height="57" viewBox="0 0 57 57" fill="none" xmlns="http://www.w3.org/2000/svg">
<mask id="mask0" mask-type="alpha" maskUnits="userSpaceOnUse" x="0" y="0" width="57" height="57">
<rect width="57" height="57" fill="#1046CF"/>
</mask>
<g mask="url(#mask0)">
<rect width="57" height="57" fill="white"/>
<path d="M12.4668 17.2207H17.96V19.418C19.0179 18.3112 19.9212 17.5625 20.6699 17.1719C21.4674 16.765 22.4684 16.5615 23.6729 16.5615C26.3584 16.5615 28.4824 17.7334 30.0449 20.0771C31.7702 17.7334 34.1058 16.5615 37.0518 16.5615C42.4066 16.5615 45.084 19.8086 45.084 26.3027V41H39.5664V27.792C39.5664 25.5133 39.2897 23.902 38.7363 22.958C38.1667 21.9977 37.2308 21.5176 35.9287 21.5176C34.415 21.5176 33.3083 22.0872 32.6084 23.2266C31.9248 24.3659 31.583 26.1969 31.583 28.7197V41H26.0654V27.8652C26.0654 23.6335 24.8447 21.5176 22.4033 21.5176C20.8571 21.5176 19.7259 22.0954 19.0098 23.251C18.3099 24.4066 17.96 26.2295 17.96 28.7197V41H12.4668V17.2207Z" fill="#1046CF"/>
<mask id="mask1" mask-type="alpha" maskUnits="userSpaceOnUse" x="-12" y="24" width="89" height="53">
<rect x="-12" y="38.4702" width="83" height="39" transform="rotate(-10.0403 -12 38.4702)" fill="white"/>
</mask>
<g mask="url(#mask1)">
<rect x="-12" y="38.4702" width="83" height="39" transform="rotate(-10.0403 -12 38.4702)" fill="white"/>
<path d="M12.4668 17.2207H17.96V19.418C19.0179 18.3112 19.9212 17.5625 20.6699 17.1719C21.4674 16.765 22.4684 16.5615 23.6729 16.5615C26.3584 16.5615 28.4824 17.7334 30.0449 20.0771C31.7702 17.7334 34.1058 16.5615 37.0518 16.5615C42.4066 16.5615 45.084 19.8086 45.084 26.3027V41H39.5664V27.792C39.5664 25.5133 39.2897 23.902 38.7363 22.958C38.1667 21.9977 37.2308 21.5176 35.9287 21.5176C34.415 21.5176 33.3083 22.0872 32.6084 23.2266C31.9248 24.3659 31.583 26.1969 31.583 28.7197V41H26.0654V27.8652C26.0654 23.6335 24.8447 21.5176 22.4033 21.5176C20.8571 21.5176 19.7259 22.0954 19.0098 23.251C18.3099 24.4066 17.96 26.2295 17.96 28.7197V41H12.4668V17.2207Z" fill="#0D2E85"/>
</g>
</g>
</svg>
