<svg width="627" height="190" viewBox="0 0 627 190" fill="none" xmlns="http://www.w3.org/2000/svg">
<path d="M279.241 42.2422H296.598V117.049H279.241V109.215C272.123 115.872 264.469 119.2 256.276 119.2C245.933 119.2 237.382 115.462 230.624 107.986C223.916 100.357 220.562 90.8335 220.562 79.4154C220.562 68.202 223.916 58.8575 230.624 51.3819C237.331 43.9063 245.728 40.1685 255.815 40.1685C264.52 40.1685 272.328 43.7527 279.241 50.9211V42.2422ZM238.227 79.4154C238.227 86.5837 240.147 92.4208 243.988 96.9267C247.93 101.484 252.897 103.762 258.888 103.762C265.288 103.762 270.459 101.561 274.402 97.1571C278.345 92.6 280.316 86.8141 280.316 79.7994C280.316 72.7846 278.345 66.9987 274.402 62.4417C270.459 57.987 265.339 55.7597 259.041 55.7597C253.102 55.7597 248.135 58.0126 244.141 62.5185C240.199 67.0755 238.227 72.7078 238.227 79.4154Z" fill="#000C2C"/>
<path d="M336.229 58.371V117.049H318.948V58.371H311.575V42.2422H318.948V14.8232H336.229V42.2422H349.67V58.371H336.229Z" fill="#000C2C"/>
<path d="M430.929 83.7164H377.319C377.78 89.8607 379.777 94.7505 383.31 98.3859C386.843 101.97 391.374 103.762 396.904 103.762C401.205 103.762 404.764 102.738 407.58 100.69C410.345 98.642 413.494 94.853 417.027 89.3231L431.62 97.4643C429.367 101.304 426.986 104.607 424.477 107.372C421.968 110.086 419.28 112.339 416.413 114.131C413.545 115.872 410.447 117.152 407.119 117.971C403.791 118.79 400.181 119.2 396.29 119.2C385.128 119.2 376.167 115.616 369.409 108.447C362.65 101.228 359.27 91.6528 359.27 79.7226C359.27 67.8947 362.547 58.3198 369.101 50.9979C375.706 43.7783 384.462 40.1685 395.368 40.1685C406.377 40.1685 415.081 43.6759 421.482 50.6906C427.831 57.6542 431.005 67.3059 431.005 79.6458L430.929 83.7164ZM413.187 69.5844C410.78 60.368 404.969 55.7597 395.752 55.7597C393.653 55.7597 391.682 56.0925 389.838 56.7582C387.995 57.3726 386.305 58.2942 384.769 59.5231C383.284 60.7008 382.004 62.1344 380.929 63.8241C379.854 65.5138 379.035 67.4339 378.471 69.5844H413.187Z" fill="#000C2C"/>
<path d="M449.899 42.2422H467.18V48.9242C470.355 45.596 473.171 43.3175 475.628 42.0886C478.137 40.8085 481.107 40.1685 484.538 40.1685C489.095 40.1685 493.857 41.6534 498.823 44.6231L490.912 60.4448C487.635 58.0894 484.435 56.9118 481.312 56.9118C471.891 56.9118 467.18 64.0289 467.18 78.2633V117.049H449.899V42.2422Z" fill="#000C2C"/>
<path d="M528.47 42.2422V117.049H511.189V42.2422H528.47ZM508.577 11.1366C508.577 8.11562 509.678 5.50429 511.88 3.30257C514.082 1.10086 516.719 0 519.791 0C522.914 0 525.577 1.10086 527.778 3.30257C529.98 5.45308 531.081 8.09002 531.081 11.2134C531.081 14.3367 529.98 16.9993 527.778 19.201C525.628 21.4027 522.991 22.5036 519.868 22.5036C516.744 22.5036 514.082 21.4027 511.88 19.201C509.678 16.9993 508.577 14.3111 508.577 11.1366Z" fill="#000C2C"/>
<path d="M573.554 76.5736L546.672 42.2422H567.256L583.922 64.0545L600.896 42.2422H622.094L594.444 76.5736L626.472 117.049H605.888L583.922 89.0927L561.419 117.049H540.297L573.554 76.5736Z" fill="#000C2C"/>
<path d="M99.6362 42.2422H116.917V49.1545C120.245 45.6727 123.087 43.3174 125.442 42.0886C127.951 40.8085 131.1 40.1685 134.889 40.1685C143.338 40.1685 150.02 43.855 154.935 51.2282C160.363 43.855 167.71 40.1685 176.978 40.1685C193.824 40.1685 202.246 50.3834 202.246 70.8133V117.049H184.889V75.4983C184.889 68.3299 184.018 63.2609 182.277 60.2911C180.485 57.2701 177.541 55.7597 173.445 55.7597C168.683 55.7597 165.201 57.5518 163 61.136C160.849 64.7201 159.774 70.4804 159.774 78.4169V117.049H142.416V75.7287C142.416 62.416 138.576 55.7597 130.895 55.7597C126.031 55.7597 122.473 57.5774 120.22 61.2128C118.018 64.8481 116.917 70.5828 116.917 78.4169V117.049H99.6362V42.2422Z" fill="#0C3BB4"/>
<path d="M8.1164 154.061C9.06017 153.966 9.24892 153.966 11.0421 153.872C17.9788 153.636 23.1695 153.258 25.812 152.739C25.1986 153.211 25.0098 153.353 24.2548 154.061C19.536 158.544 13.2599 163.451 8.58829 166.235C5.33229 166.802 1.79316 167.179 0.330319 167.179C0.235942 167.179 0.141565 167.179 0 167.179L0.377507 170.765C2.12348 170.246 6.79513 169.538 14.2981 168.642C16.9878 168.312 21.1876 167.745 21.9898 167.651C23.9245 167.321 23.9245 167.321 24.5852 167.226C17.79 170.199 14.2981 173.927 14.2981 178.127C14.2981 180.439 15.289 182.562 17.0822 184.073C19.3472 186.007 23.4526 187.045 28.9737 187.14C31.3803 187.187 31.3803 187.187 32.1825 187.234L32.0409 183.601C31.0028 183.789 30.059 183.884 28.8321 183.884C21.6595 183.884 17.6013 181.666 17.6013 177.796C17.6013 176.381 18.026 175.295 19.1113 173.88C20.4326 172.181 22.6032 170.529 25.0098 169.397C28.5018 167.745 33.1734 166.849 37.9867 166.849C38.1754 166.849 38.5529 166.849 39.0248 166.849L38.6945 163.546C38.1282 163.687 37.9395 163.687 37.326 163.734C36.3822 163.829 34.9666 163.97 33.0319 164.112C29.4456 164.442 26.5671 164.725 24.6323 164.867C17.4597 165.48 15.6194 165.716 13.3071 166.141C18.026 163.357 24.1605 158.591 28.7849 154.108C30.0118 152.928 30.3421 152.645 31.0971 152.126L29.1152 149.625C28.4546 149.908 27.5108 150.097 26.4727 150.191C23.1223 150.569 16.3272 150.852 12.0802 150.852C10.1455 150.852 9.29611 150.805 7.83327 150.663L8.1164 154.061Z" fill="#000C2C"/>
<path d="M48.6984 180.014C49.0287 179.495 49.1703 179.354 49.9253 178.504C50.7275 177.608 51.3881 176.853 51.9072 176.286C53.5116 174.493 53.5116 174.493 54.2195 173.691C54.7385 173.078 54.8801 172.936 55.0688 172.559H55.1632C55.0217 174.682 55.0217 174.682 55.0217 180.203C54.9745 186.243 54.9745 186.243 54.6913 187.989H58.372C58.2305 186.573 58.2305 186.196 58.2305 180.156V169.963C63.1852 165.197 64.5065 164.017 67.3378 161.941C70.3579 159.77 72.6229 158.732 74.4633 158.732C76.0677 158.732 77.0586 159.723 77.0586 161.281C77.0586 162.555 76.8227 164.065 75.8789 168.359C74.1801 176.428 74.0858 176.947 74.0858 179.354C74.0858 181.996 74.7464 183.648 76.3036 184.733C77.153 185.347 78.3799 185.724 79.6068 185.724C82.1078 185.724 84.2313 184.639 86.1188 182.327C87.2041 181.005 87.7232 180.156 89.0445 177.655C88.1479 176.617 87.8648 176.192 86.8738 174.446C86.3076 176.286 85.3638 178.221 84.1841 179.873C83.0516 181.43 81.4472 182.468 80.1731 182.468C78.3327 182.468 77.3418 181.288 77.3418 179.118C77.3418 177.183 77.6249 175.531 79.3709 167.934C80.1731 164.395 80.4562 162.649 80.4562 161.045C80.4562 157.647 78.3327 155.524 74.9352 155.524C72.1039 155.524 68.5647 157.27 64.2706 160.714C60.5899 163.687 58.9855 165.197 58.2777 166.235L58.1833 166.188C58.1833 165.905 58.2305 165.811 58.2305 165.433C58.2777 165.197 58.2777 165.008 58.2777 165.008C58.3248 162.791 58.3248 162.791 58.372 161.847C58.4192 161.564 58.4192 161.186 58.4192 160.667C59.6461 158.968 60.2124 158.26 60.8258 157.741L59.5989 156.279C59.2214 156.42 59.0799 156.467 58.6552 156.514C58.8439 150.758 58.9855 149.247 59.2214 148.115L55.4935 148.068C55.5879 149.012 55.6351 149.436 55.6351 150.427C55.6351 151.041 55.5879 153.164 55.4464 156.75C51.4825 156.986 49.4062 157.128 49.2647 157.128C48.84 157.128 48.5569 157.128 47.8018 157.034L47.9906 160.29C49.0759 160.054 49.0759 160.054 55.3992 159.629C55.2576 163.782 55.1632 166.754 55.116 168.642C51.5297 172.464 48.1322 175.767 46.8109 176.617L48.6984 180.014Z" fill="#000C2C"/>
<path d="M108.014 161.516C108.109 161.516 108.156 161.516 108.203 161.516C108.297 161.516 108.439 161.516 108.675 161.564C108.769 161.564 109.052 161.564 109.477 161.611C109.666 161.611 110.185 161.611 110.987 161.705C112.639 161.8 114.385 161.847 116.319 161.847C118.113 161.847 119.575 161.8 121.699 161.705C121.84 168.595 122.029 173.03 122.171 174.021C121.085 173.455 118.868 173.078 116.933 173.078C111.695 173.078 107.967 175.862 107.967 179.778C107.967 183.884 111.412 186.479 116.886 186.479C120.755 186.479 123.634 185.016 124.766 182.515C125.144 181.666 125.332 180.533 125.332 179.306C125.332 178.882 125.332 178.787 125.238 178.08C125.474 178.221 125.474 178.221 125.663 178.363C125.946 178.551 125.946 178.551 126.135 178.646C129.485 180.581 131.372 181.902 132.835 183.553L134.298 180.25C133.779 179.92 133.685 179.826 133.118 179.448C130.004 177.136 128.683 176.381 125.238 174.824C124.86 168.548 124.766 166.141 124.719 161.469C127.173 161.186 128.494 160.997 129.721 160.714C132.93 160.054 132.93 160.054 133.024 160.054L132.882 156.845C131.089 157.6 128.352 158.166 124.719 158.591C124.672 157.553 124.672 156.798 124.672 156.279C124.672 152.362 124.766 150.144 125.002 148.87H121.463C121.557 149.342 121.604 150.002 121.604 150.805C121.604 154.391 121.604 154.391 121.652 158.827C119.717 158.921 118.443 158.968 116.603 158.968C112.45 158.968 110.421 158.78 108.109 158.213L108.014 161.516ZM122.218 176.9C122.218 176.9 122.265 177.985 122.265 178.316C122.265 180.156 121.982 181.288 121.369 181.996C120.472 183.034 118.632 183.648 116.555 183.648C113.252 183.648 111.081 182.138 111.081 179.826C111.081 177.466 113.488 175.909 117.169 175.909C119.056 175.909 120.283 176.145 122.218 176.9ZM99.6619 148.823C99.6147 149.436 99.5675 149.719 99.1428 151.796C97.3025 159.959 96.689 164.914 96.689 171.19C96.689 175.956 97.1609 180.817 98.0103 185.205C98.199 186.29 98.2462 186.526 98.2934 186.951L101.644 186.621C101.549 185.96 101.549 185.913 101.549 185.677C101.549 182.893 103.39 176.9 105.608 172.275L103.295 171.19C103.201 171.52 103.107 171.709 102.918 172.134C101.313 176.003 100.983 176.9 100.134 180.439L99.945 180.392C99.945 179.92 99.945 179.92 99.945 179.495C99.8978 178.646 99.8978 178.551 99.8978 178.174C99.8034 176.003 99.7091 173.219 99.7091 171.568C99.7091 163.829 101.313 154.155 103.343 149.436L99.6619 148.823Z" fill="#000C2C"/>
<path d="M140.055 178.693C143.594 181.619 146.331 184.592 149.351 188.98L151.994 186.479C148.785 182.138 146.378 179.59 142.509 176.475L140.055 178.693Z" fill="#000C2C"/>
<path d="M191.585 156.986C191.915 156.939 192.151 156.939 192.34 156.939C192.434 156.939 192.765 156.939 193.189 156.986C196.964 157.128 199.088 157.222 199.56 157.222H201.447C201.211 160.667 201.211 160.903 201.164 164.348C194.322 167.321 190.216 172.606 190.216 178.41C190.216 182.61 192.765 185.583 196.304 185.583C199.607 185.583 203.193 183.648 206.827 179.873C210.507 176.145 213.056 172.087 215.792 165.716C220.889 167.038 223.579 169.869 223.579 173.927C223.579 178.127 220.606 181.572 215.462 183.365C213.197 184.167 211.168 184.544 208.384 184.639C209.233 185.913 209.469 186.432 209.894 187.8C214.141 187.281 216.831 186.526 219.52 185.111C224.381 182.562 226.929 178.835 226.929 174.21C226.929 168.689 223.295 164.678 216.783 163.168C217.586 160.95 218.105 159.676 218.246 159.393L214.99 158.402C214.802 159.818 214.424 161.233 213.858 162.649C212.678 162.555 212.112 162.507 211.121 162.507C208.62 162.507 206.544 162.791 204.137 163.451C204.184 161.139 204.184 161.139 204.467 157.128C208.856 156.986 216.028 156.184 221.172 155.24C222.069 155.099 222.21 155.099 222.824 155.004L222.635 151.701C219.048 152.975 212.348 153.966 204.656 154.344C204.986 150.663 205.222 149.059 205.647 147.737L201.966 147.502C202.013 147.832 202.013 148.115 202.013 148.209C202.013 148.54 201.919 150.38 201.872 150.899C201.683 153.306 201.683 153.306 201.636 154.438C200.787 154.485 200.598 154.485 200.456 154.485C196.115 154.485 193.614 154.297 191.632 153.73L191.585 156.986ZM201.164 167.321C201.164 173.03 201.447 176.475 202.108 180.109C199.984 181.807 198.427 182.515 196.681 182.515C194.652 182.515 193.284 180.817 193.284 178.221C193.284 175.862 194.322 173.361 196.162 171.19C197.483 169.68 198.852 168.595 201.164 167.321ZM204.656 178.127C204.656 177.891 204.656 177.655 204.656 177.608C204.656 177.325 204.656 177.23 204.609 176.947C204.184 173.03 204.137 172.228 204.09 166.141C206.26 165.433 208.478 165.056 210.649 165.056C211.168 165.056 211.404 165.056 212.914 165.15C210.743 170.105 208.761 173.408 205.694 176.947C205.317 177.325 205.269 177.419 204.798 178.174L204.656 178.127Z" fill="#000C2C"/>
<path d="M247.833 147.596C247.739 149.767 246.984 153.778 246.229 156.467C245.332 156.467 243.775 156.514 242.831 156.514C240.236 156.514 238.82 156.42 237.216 156.137L237.169 159.393C237.452 159.393 237.688 159.393 237.782 159.393C237.924 159.393 238.301 159.393 238.82 159.44C239.528 159.44 241.133 159.487 241.935 159.487C242.643 159.487 244.247 159.44 245.427 159.393C244.058 163.876 242.69 167.273 240.519 171.568C238.773 174.965 237.499 177.041 235.989 178.929L239.198 180.817C239.434 180.439 239.717 179.873 240.142 179.212C241.935 176.098 242.36 175.295 243.492 173.03C245.568 168.689 247.267 164.301 248.73 159.251C251.608 159.063 254.534 158.685 256.469 158.26C257.601 158.072 257.601 158.072 258.12 157.977L257.979 154.721C255.808 155.429 252.835 155.995 249.532 156.279C250.193 153.872 250.476 152.739 250.806 151.135C251.184 149.2 251.231 149.012 251.561 148.115L247.833 147.596ZM275.627 160.62C271.805 158.166 268.643 156.562 263.17 154.391L261.424 157.034C266.378 158.827 269.965 160.714 273.929 163.451L275.627 160.62ZM275.722 181.524C275.391 181.288 275.391 181.288 274.872 180.769C272.324 178.504 269.398 176.711 265.623 175.06C265.34 173.266 265.104 170.01 265.104 167.887C265.104 166.235 265.246 165.244 265.718 163.498L262.509 163.168C262.132 164.914 262.037 166.047 262.037 167.745C262.037 168.925 262.131 171.143 262.367 174.21C260.527 173.691 259.347 173.502 257.601 173.502C255.478 173.502 253.685 173.833 252.033 174.54C249.391 175.626 247.645 177.985 247.645 180.533C247.645 184.733 251.184 187.376 256.846 187.376C262.603 187.376 265.812 184.686 265.812 179.826C265.812 179.354 265.812 179.071 265.718 178.316C269.163 180.109 272.135 182.468 273.976 184.733L275.722 181.524ZM262.603 177.23C262.603 177.23 262.698 178.693 262.698 179.259C262.698 182.798 260.857 184.403 256.799 184.403C253.071 184.403 250.806 182.94 250.806 180.533C250.806 177.938 253.354 176.286 257.365 176.286C259.253 176.286 260.621 176.522 262.603 177.23Z" fill="#000C2C"/>
<path d="M284.688 159.535C285.112 159.487 285.395 159.487 285.49 159.487C285.49 159.487 285.584 159.487 285.678 159.487C287.519 159.582 287.944 159.582 289.595 159.582C291.341 159.582 291.907 159.582 292.851 159.535C291.105 168.783 287.472 179.542 283.98 185.63L287.424 187.093C289.925 181.336 291.294 177.749 292.851 172.7C294.125 168.406 295.447 163.074 296.154 159.346C298.467 159.157 301.723 158.732 304.129 158.213C305.073 158.025 305.073 158.025 305.45 157.977L305.215 154.721C302.949 155.476 300.401 155.948 296.721 156.326C296.957 154.91 297.098 154.249 297.334 152.739C297.9 149.389 297.9 149.389 298.183 148.257L294.456 147.879C294.456 149.955 294.361 150.758 293.417 156.562C292.049 156.656 291.53 156.656 290.586 156.656C288.085 156.656 286.198 156.514 284.688 156.231V159.535ZM320.315 161.847C316.776 161.705 316.068 161.705 315.171 161.705C311.207 161.705 308.14 162.083 302.666 163.262L302.997 166.471C307.291 165.292 310.594 164.867 314.794 164.867C316.776 164.867 318.097 164.961 320.362 165.197L320.315 161.847ZM303.138 172.039C300.637 175.248 299.977 176.711 299.977 178.835C299.977 183.506 303.988 185.913 311.726 185.913C314.227 185.913 316.964 185.677 320.126 185.111C321.683 184.875 321.683 184.875 322.202 184.78L321.872 181.241C319.182 182.185 314.982 182.846 311.443 182.846C306.064 182.846 303.185 181.336 303.185 178.504C303.185 177.372 303.61 176.145 304.365 175.154C304.695 174.635 304.837 174.493 305.781 173.361L303.138 172.039Z" fill="#000C2C"/>
<path d="M348.345 153.306V156.798H338.105C336.264 156.798 335.321 156.75 334.094 156.609C334.235 157.883 334.283 158.685 334.283 160.006V168.831C334.283 170.105 334.235 170.907 334.094 172.134C335.462 171.992 336.406 171.945 338.105 171.945H358.396V175.295H334.613C332.537 175.295 331.215 175.201 329.847 175.012V178.127C331.31 177.938 332.725 177.844 334.566 177.844H358.396V185.016C358.396 186.007 358.065 186.196 356.367 186.196C354.479 186.196 352.403 186.054 350.751 185.771C351.412 187.187 351.506 187.564 351.648 188.744C354.432 188.886 354.998 188.886 356.225 188.886C360.095 188.886 361.227 188.131 361.227 185.535V177.844H366.229C368.069 177.844 369.532 177.938 370.901 178.127V175.012C369.485 175.201 368.258 175.295 366.182 175.295H361.227V171.945H362.501C364.2 171.945 365.191 171.992 366.559 172.134C366.418 170.907 366.371 170.199 366.371 168.831V160.006C366.371 158.591 366.418 157.836 366.559 156.609C365.285 156.75 364.389 156.798 362.548 156.798H351.176V153.306H366.182C368.069 153.306 369.438 153.4 370.854 153.589V150.474C369.438 150.663 368.211 150.758 366.135 150.758H351.176V150.333C351.176 148.728 351.27 147.596 351.459 146.416H348.062C348.297 147.502 348.345 148.492 348.345 150.333V150.758H334.613C332.537 150.758 331.215 150.663 329.847 150.474V153.589C331.215 153.4 332.631 153.306 334.566 153.306H348.345ZM348.345 159.204V162.979H337.208V159.204H348.345ZM351.176 159.204H363.445V162.979H351.176V159.204ZM348.345 165.292V169.586H337.208V165.292H348.345ZM351.176 165.292H363.445V169.586H351.176V165.292ZM347.92 184.78C345.702 182.515 343.956 181.052 340.889 178.929L338.671 180.722C341.361 182.61 343.107 184.167 345.608 186.904L347.92 184.78Z" fill="#000C2C"/>
<path d="M399.167 173.691H412.993V184.356C412.993 185.535 412.568 185.771 410.492 185.771C408.793 185.771 406.481 185.583 403.744 185.252C404.169 186.432 404.357 187.234 404.452 188.319C406.434 188.461 408.793 188.555 410.303 188.555C414.88 188.555 415.966 187.848 415.966 184.875V153.211C415.966 151.088 416.013 149.861 416.154 148.587C414.786 148.728 413.512 148.776 411.152 148.776H385.765C383.406 148.776 381.99 148.728 380.574 148.587C380.763 150.616 380.763 151.513 380.763 156.279C380.763 167.934 380.338 174.824 379.3 179.165C378.545 182.374 377.507 184.497 375.478 187.14C376.705 187.848 377.177 188.178 378.215 189.169C381.377 184.686 382.603 180.817 383.311 173.691H396.241V182.61C396.241 185.111 396.194 186.526 396.005 187.753H399.402C399.214 186.621 399.167 185.111 399.167 182.61V173.691ZM399.167 159.865V151.607H412.993V159.865H399.167ZM396.241 159.865H383.783L383.83 157.222V151.607H396.241V159.865ZM399.167 162.555H412.993V170.954H399.167V162.555ZM396.241 162.555V170.954H383.5C383.642 168.783 383.642 168.595 383.689 165.669C383.689 165.008 383.689 163.876 383.736 162.555H396.241Z" fill="#000C2C"/>
<path d="M447.157 154.58C449.517 154.674 450.885 155.004 452.631 155.759C457.397 157.883 460.134 162.224 460.134 167.604C460.134 173.408 456.972 178.457 451.782 180.817C449.564 181.855 447.346 182.468 443.901 183.034C444.798 184.167 445.081 184.639 445.553 186.196C448.809 185.488 450.602 184.922 452.725 184.025C459.568 181.1 463.531 175.06 463.531 167.745C463.531 163.215 461.927 159.11 458.954 156.231C455.887 153.211 451.263 151.56 445.977 151.56C439.654 151.56 434.511 153.683 430.736 157.836C427.574 161.375 425.781 166.047 425.781 170.86C425.781 177.466 429.131 182.374 433.614 182.374C437.012 182.374 439.796 179.542 442.533 173.314C444.656 168.359 446.449 161.139 447.157 154.58ZM443.76 154.627C443.146 160.667 441.4 167.651 439.465 172.087C437.436 176.711 435.549 178.929 433.567 178.929C431.019 178.929 429.037 175.437 429.037 170.907C429.037 165.056 431.962 159.723 436.729 156.845C438.899 155.524 440.928 154.863 443.76 154.627Z" fill="#000C2C"/>
<path d="M475.895 163.026H484.483C486.418 163.026 488.211 163.074 489.249 163.168C489.155 162.036 489.108 160.714 489.108 158.827V152.503C489.108 150.663 489.155 149.436 489.249 148.021C487.928 148.162 486.795 148.209 484.436 148.209H477.688C475.376 148.209 474.055 148.162 472.78 148.021C472.922 149.531 472.969 150.899 472.969 153.211V183.837C472.969 186.385 472.875 187.8 472.686 189.122H476.178C475.989 187.989 475.895 186.479 475.895 183.837V163.026ZM475.895 150.522H486.418V154.391H475.895V150.522ZM475.895 156.703H486.418V160.667H475.895V156.703ZM510.814 153.211C510.814 151.182 510.861 149.719 511.05 148.021C509.729 148.162 508.455 148.209 506.095 148.209H498.451C496.139 148.209 494.912 148.162 493.638 148.021C493.732 149.436 493.779 150.852 493.779 152.503V158.827C493.779 160.573 493.732 161.8 493.638 163.168C494.676 163.074 496.469 163.026 498.451 163.026H507.889V184.356C507.889 185.441 507.558 185.724 506.19 185.724C504.633 185.724 502.509 185.535 500.197 185.252C500.716 186.385 500.858 186.951 501.046 188.272C503.123 188.414 504.821 188.461 506.662 188.461C509.918 188.461 510.814 187.612 510.814 184.544V153.211ZM496.516 150.522H507.889V154.391H496.516V150.522ZM496.516 156.703H507.889V160.667H496.516V156.703ZM500.15 170.246C500.15 169.161 500.197 168.264 500.291 167.368C499.442 167.462 498.215 167.509 496.847 167.509H486.276C485.002 167.509 483.964 167.462 483.02 167.368C483.115 168.312 483.162 169.255 483.162 170.341V179.778C483.162 181.666 483.115 182.846 482.926 184.167H485.993V180.439H497.318C498.545 180.439 499.348 180.486 500.291 180.581C500.197 179.778 500.15 178.882 500.15 177.749V170.246ZM485.993 170.01H497.366V177.938H485.993V170.01Z" fill="#000C2C"/>
<path d="M527.944 182.232C525.962 180.675 524.499 179.212 523.508 177.513C523.791 175.956 523.791 175.72 524.027 173.455C524.074 172.842 524.121 172.606 524.216 171.851L521.196 171.473C521.29 171.945 521.29 172.228 521.29 172.747C521.29 174.54 520.818 177.985 520.346 179.731C519.591 182.374 518.412 184.639 516.666 186.904C517.751 187.47 518.459 187.989 519.119 188.744C520.913 186.196 521.951 183.837 522.847 180.533C524.829 183.365 527.236 185.299 530.256 186.479C533.606 187.8 539.174 188.319 549.414 188.319C553.425 188.319 558.191 188.225 560.787 188.036C561.023 186.668 561.259 185.913 561.825 184.78C558.097 185.252 553.708 185.488 547.81 185.488C544.743 185.488 540.401 185.347 538.042 185.158C534.314 184.922 532.804 184.639 530.681 183.742V176.664H533.512C535.163 176.664 536.296 176.758 537.334 176.947V173.974C536.107 174.163 535.069 174.21 533.559 174.21H530.681V169.067H534.267C536.013 169.067 537.287 169.114 538.655 169.303V166.235C537.381 166.424 536.249 166.518 534.408 166.518H522.423C520.299 166.518 519.025 166.424 517.798 166.235V169.303C518.931 169.114 520.063 169.067 522.423 169.067H527.944V182.232ZM547.763 151.135C547.48 152.362 546.961 153.872 546.347 155.476H544.46C542.336 155.476 541.44 155.429 540.307 155.335C540.449 156.656 540.496 157.789 540.496 159.535V172.323C540.496 174.21 540.449 175.531 540.307 176.522C541.298 176.428 542.714 176.381 544.507 176.381H554.228C555.879 176.381 556.87 176.428 558.239 176.522C558.097 175.343 558.05 174.021 558.05 171.992V159.582C558.05 157.647 558.097 156.514 558.239 155.335C557.106 155.429 556.115 155.476 554.086 155.476H549.037C549.65 154.061 550.169 152.598 550.547 151.135H556.021C557.625 151.135 559.135 151.229 560.456 151.371V148.398C559.324 148.587 557.908 148.681 555.879 148.681H543.28C541.204 148.681 539.882 148.587 538.467 148.398V151.371C539.599 151.229 541.062 151.135 543.138 151.135H547.763ZM543.138 157.836H555.36V161.564H543.138V157.836ZM543.138 163.876H555.36V167.745H543.138V163.876ZM543.138 170.058H555.36V174.021H543.138V170.058ZM520.818 159.535C520.818 161.422 520.771 162.602 520.629 163.734C521.856 163.593 523.036 163.546 525.018 163.546H532.143C534.125 163.546 535.305 163.593 536.532 163.734C536.39 162.46 536.343 161.611 536.343 159.629V152.503C536.343 150.427 536.39 149.436 536.532 148.209C535.305 148.351 534.408 148.398 532.143 148.398H525.018C522.847 148.398 521.762 148.351 520.629 148.209C520.771 149.436 520.818 150.616 520.818 152.456V159.535ZM523.508 150.758H533.653V154.721H523.508V150.758ZM523.508 157.081H533.653V161.281H523.508V157.081ZM544.365 177.183C542.053 179.684 540.165 180.958 536.154 182.562C537.004 183.129 537.712 183.837 538.325 184.686C541.817 182.987 543.893 181.477 546.677 178.693L544.365 177.183ZM550.83 178.787C553.944 181.524 555.974 182.94 559.324 184.544C559.937 183.506 560.315 183.034 561.117 182.232C557.72 180.817 555.738 179.59 552.953 177.277L550.83 178.787Z" fill="#000C2C"/>
<path d="M588.203 165.292H598.254C600.331 165.292 601.369 165.339 602.501 165.527V162.696C601.086 162.932 600.189 162.979 598.254 162.979H588.203V159.44H598.254C600.378 159.44 601.227 159.487 602.501 159.676V156.845C601.133 157.081 600.142 157.128 598.254 157.128H588.203V153.589H600.614C602.548 153.589 603.492 153.636 604.719 153.825V150.899C603.445 151.088 602.454 151.135 600.378 151.135H588.439C589.289 150.05 590.138 148.776 591.318 146.605L588.25 145.897C587.637 147.737 586.929 149.059 585.419 151.135H575.226C576.076 150.05 576.076 150.05 578.341 146.605L575.085 145.803C574.754 146.841 574.141 148.021 573.386 149.2C570.932 153.023 568.101 155.854 564.232 158.544C565.081 159.346 565.553 159.865 566.119 160.856C568.478 159.063 569.658 157.93 571.357 155.995C571.215 157.458 571.168 158.921 571.168 160.62V168.548C571.168 169.822 571.121 171.001 571.027 171.709C572.018 171.615 572.537 171.615 574.283 171.615H584.664V175.06H570.555C567.912 175.06 566.544 174.965 565.364 174.776V177.891C566.968 177.702 568.431 177.608 570.555 177.608H582.21C580.512 179.212 578.671 180.486 576.17 181.807C572.584 183.695 569.375 184.78 564.703 185.63C565.553 186.573 566.025 187.234 566.591 188.461C569.989 187.564 572.914 186.526 575.604 185.205C579.332 183.412 581.974 181.524 584.806 178.551C584.758 179.118 584.758 179.118 584.758 179.92C584.711 180.062 584.711 180.392 584.711 180.864C584.664 181.383 584.664 181.807 584.664 182.138V185.866C584.664 187.517 584.617 188.319 584.381 189.358H587.873C587.637 188.414 587.59 187.848 587.59 185.818V182.138C587.59 180.817 587.59 180.25 587.448 178.551C592.167 183.318 597.547 186.243 605.852 188.697C606.371 187.517 606.795 186.857 607.645 185.771C600.425 184.261 594.29 181.43 589.902 177.608H601.793C603.964 177.608 605.427 177.702 607.079 177.891V174.776C605.852 175.012 604.483 175.06 601.793 175.06H587.59V171.615H600.567C602.596 171.615 603.587 171.662 604.861 171.851V169.019C603.587 169.208 602.643 169.255 600.519 169.255H588.203V165.292ZM585.419 165.292V169.255H574.047V165.292H585.419ZM585.419 162.979H574.047V159.44H585.419V162.979ZM585.419 157.128H574.047V153.589H585.419V157.128Z" fill="#000C2C"/>
<path d="M619.442 174.776C615.525 174.776 612.364 177.938 612.364 181.855C612.364 185.771 615.525 188.933 619.442 188.933C623.359 188.933 626.52 185.771 626.52 181.855C626.52 177.938 623.359 174.776 619.442 174.776ZM619.442 177.466C621.849 177.466 623.83 179.448 623.83 181.855C623.83 184.261 621.849 186.243 619.442 186.243C617.035 186.243 615.053 184.261 615.053 181.855C615.053 179.448 617.035 177.466 619.442 177.466Z" fill="#000C2C"/>
</svg>
